{
  "accessors": [
    {
      "bufferView": 2,
      "componentType": 5126,
      "count": 11601,
      "max": [
        3.4326000213623047,
        3.0660998821258545,
        3.8494000434875488
      ],
      "min": [
        -3.3280999660491943,
        -2.1684000492095947,
        -3.8815999031066895
      ],
      "type": "VEC3"
    },
    {
      "bufferView": 2,
      "byteOffset": 139212,
      "componentType": 5126,
      "count": 11601,
      "max": [
        0.99995660781860352,
        0.99994778633117676,
        0.9999854564666748
      ],
      "min": [
        -0.99918925762176514,
        -0.99999237060546875,
        -0.99993085861206055
      ],
      "type": "VEC3"
    },
    {
      "bufferView": 3,
      "componentType": 5126,
      "count": 11601,
      "max": [
        0.99877691268920898,
        0.99999916553497314,
        0.99964010715484619,
        1
      ],
      "min": [
        -0.99990314245223999,
        -0.99983447790145874,
        -0.99949932098388672,
        -1
      ],
      "type": "VEC4"
    },
    {
      "bufferView": 1,
      "componentType": 5126,
      "count": 11601,
      "max": [
        0.99800002574920654,
        0.91109997034072876
      ],
      "min": [
        0.0020000000949949026,
        0.0020000000949949026
      ],
      "type": "VEC2"
    },
    {
      "bufferView": 0,
      "componentType": 5125,
      "count": 62742,
      "max": [
        11600
      ],
      "min": [
        0
      ],
      "type": "SCALAR"
    }
  ],
  "asset": {
    "extras": {
      "author": "tedpermana (https://sketchfab.com/teddpermana)",
      "license": "SKETCHFAB Standard (https://sketchfab.com/licenses)",
      "source": "https://sketchfab.com/3d-models/human-skull-anatomy-76583163b2634de09cdd2e530b035ac9",
      "title": "Human Skull Anatomy"
    },
    "generator": "Sketchfab-8.20.0",
    "version": "2.0"
  },
  "bufferViews": [
    {
      "buffer": 0,
      "byteLength": 250968,
      "byteOffset": 0,
      "name": "floatBufferViews",
      "target": 34963
    },
    {
      "buffer": 0,
      "byteLength": 92808,
      "byteOffset": 250968,
      "byteStride": 8,
      "name": "floatBufferViews",
      "target": 34962
    },
    {
      "buffer": 0,
      "byteLength": 278424,
      "byteOffset": 343776,
      "byteStride": 12,
      "name": "floatBufferViews",
      "target": 34962
    },
    {
      "buffer": 0,
      "byteLength": 185616,
      "byteOffset": 622200,
      "byteStride": 16,
      "name": "floatBufferViews",
      "target": 34962
    }
  ],
  "buffers": [
    {
      "byteLength": 807816,
      "uri": "scene.bin"
    }
  ],
  "images": [
    {
      "uri": "textures/HumanSkull_UNWRAPEDSkull_Mtl_baseColor.png"
    },
    {
      "uri": "textures/HumanSkull_UNWRAPEDSkull_Mtl_metallicRoughness.png"
    },
    {
      "uri": "textures/HumanSkull_UNWRAPEDSkull_Mtl_normal.png"
    }
  ],
  "materials": [
    {
      "doubleSided": true,
      "name": "HumanSkull_UNWRAPEDSkull_Mtl",
      "normalTexture": {
        "index": 2,
        "scale": 1,
        "texCoord": 0
      },
      "occlusionTexture": {
        "index": 1,
        "strength": 1,
        "texCoord": 0
      },
      "pbrMetallicRoughness": {
        "baseColorFactor": [
          1,
          1,
          1,
          1
        ],
        "baseColorTexture": {
          "index": 0,
          "texCoord": 0
        },
        "metallicFactor": 1,
        "metallicRoughnessTexture": {
          "index": 1,
          "texCoord": 0
        },
        "roughnessFactor": 1
      }
    }
  ],
  "meshes": [
    {
      "primitives": [
        {
          "attributes": {
            "NORMAL": 1,
            "POSITION": 0,
            "TANGENT": 2,
            "TEXCOORD_0": 3
          },
          "indices": 4,
          "material": 0,
          "mode": 4
        }
      ]
    }
  ],
  "nodes": [
    {
      "children": [
        1
      ],
      "name": "RootNode (gltf orientation matrix)",
      "rotation": [
        -0.70710678118654746,
        -0,
        -0,
        0.70710678118654757
      ]
    },
    {
      "children": [
        2
      ],
      "name": "RootNode (model correction matrix)"
    },
    {
      "children": [
        3
      ],
      "name": "Skull_SUBSTANCE.obj.cleaner.materialmerger.gles"
    },
    {
      "mesh": 0,
      "name": ""
    }
  ],
  "samplers": [
    {
      "magFilter": 9729,
      "minFilter": 9987,
      "wrapS": 10497,
      "wrapT": 10497
    }
  ],
  "scene": 0,
  "scenes": [
    {
      "name": "OSG_Scene",
      "nodes": [
        0
      ]
    }
  ],
  "textures": [
    {
      "sampler": 0,
      "source": 0
    },
    {
      "sampler": 0,
      "source": 1
    },
    {
      "sampler": 0,
      "source": 2
    }
  ]
}

