{
  "accessors": [
    {
      "bufferView": 2,
      "componentType": 5126,
      "count": 106,
      "max": [
        0.80778998136520386,
        0.86115002632141113,
        2.3498299121856689
      ],
      "min": [
        -1.050819993019104,
        -0.90476000308990479,
        -0.02491999976336956
      ],
      "type": "VEC3"
    },
    {
      "bufferView": 2,
      "byteOffset": 1272,
      "componentType": 5126,
      "count": 106,
      "max": [
        0.98487162590026855,
        0.96011847257614136,
        0.99289613962173462
      ],
      "min": [
        -0.96255546808242798,
        -0.9908301830291748,
        -0.96353238821029663
      ],
      "type": "VEC3"
    },
    {
      "bufferView": 3,
      "componentType": 5126,
      "count": 106,
      "max": [
        0.99335777759552002,
        0.94208133220672607,
        0.98467344045639038,
        1
      ],
      "min": [
        -0.97147119045257568,
        -0.9857330322265625,
        -0.9889063835144043,
        1
      ],
      "type": "VEC4"
    },
    {
      "bufferView": 1,
      "componentType": 5126,
      "count": 106,
      "max": [
        0.99630999565124512,
        0.99641001224517822
      ],
      "min": [
        0.0036899999249726534,
        0.003590000094845891
      ],
      "type": "VEC2"
    },
    {
      "bufferView": 0,
      "componentType": 5125,
      "count": 258,
      "max": [
        105
      ],
      "min": [
        0
      ],
      "type": "SCALAR"
    }
  ],
  "asset": {
    "extras": {
      "author": "Kyan0s (https://sketchfab.com/kyan0s)",
      "license": "CC-BY-4.0 (http://creativecommons.org/licenses/by/4.0/)",
      "source": "https://sketchfab.com/models/7fbdabc8ab61449bb685c94ccbec458b",
      "title": "Bush #01 - Blacksmith's workshop assets"
    },
    "generator": "Sketchfab-3.19.3",
    "version": "2.0"
  },
  "bufferViews": [
    {
      "buffer": 0,
      "byteLength": 1032,
      "byteOffset": 0,
      "name": "floatBufferViews",
      "target": 34963
    },
    {
      "buffer": 0,
      "byteLength": 848,
      "byteOffset": 1032,
      "byteStride": 8,
      "name": "floatBufferViews",
      "target": 34962
    },
    {
      "buffer": 0,
      "byteLength": 2544,
      "byteOffset": 1880,
      "byteStride": 12,
      "name": "floatBufferViews",
      "target": 34962
    },
    {
      "buffer": 0,
      "byteLength": 1696,
      "byteOffset": 4424,
      "byteStride": 16,
      "name": "floatBufferViews",
      "target": 34962
    }
  ],
  "buffers": [
    {
      "byteLength": 6120,
      "uri": "scene.bin"
    }
  ],
  "images": [
    {
      "uri": "textures/bush01_metallicRoughness.png"
    },
    {
      "uri": "textures/bush01_normal.png"
    }
  ],
  "materials": [
    {
      "doubleSided": true,
      "emissiveFactor": [
        0,
        0,
        0
      ],
      "name": "bush01",
      "normalTexture": {
        "index": 1,
        "scale": 1,
        "texCoord": 0
      },
      "occlusionTexture": {
        "index": 0,
        "strength": 1,
        "texCoord": 0
      },
      "pbrMetallicRoughness": {
        "baseColorFactor": [
          0.1470272665,
          0.1620293756,
          0.056128490000000003,
          1
        ],
        "metallicFactor": 0,
        "roughnessFactor": 1
      }
    }
  ],
  "meshes": [
    {
      "name": "bush_01_0",
      "primitives": [
        {
          "attributes": {
            "NORMAL": 1,
            "POSITION": 0,
            "TANGENT": 2,
            "TEXCOORD_0": 3
          },
          "indices": 4,
          "material": 0,
          "mode": 4
        }
      ]
    }
  ],
  "nodes": [
    {
      "children": [
        1
      ],
      "name": "RootNode (gltf orientation matrix)",
      "rotation": [
        -0.70710678118654746,
        -0,
        -0,
        0.70710678118654757
      ]
    },
    {
      "children": [
        2
      ],
      "name": "RootNode (model correction matrix)"
    },
    {
      "children": [
        3
      ],
      "name": "Root"
    },
    {
      "children": [
        4
      ],
      "name": "bush_01"
    },
    {
      "mesh": 0,
      "name": "bush_01_0"
    }
  ],
  "samplers": [
    {
      "magFilter": 9729,
      "minFilter": 9987,
      "wrapS": 10497,
      "wrapT": 10497
    }
  ],
  "scene": 0,
  "scenes": [
    {
      "name": "OSG_Scene",
      "nodes": [
        0
      ]
    }
  ],
  "textures": [
    {
      "sampler": 0,
      "source": 0
    },
    {
      "sampler": 0,
      "source": 1
    }
  ]
}

